<svg width="43" height="44" viewBox="0 0 43 44" fill="none" xmlns="http://www.w3.org/2000/svg">
<path d="M10.6434 11.3934C4.77442 17.2624 4.77442 26.7376 10.6434 32.6066C16.5124 38.4756 25.9876 38.4756 31.8566 32.6066C37.7256 26.7376 37.7256 17.2624 31.8566 11.3934C25.9876 5.52441 16.5124 5.52441 10.6434 11.3934ZM26.5533 17.4038L21.9571 22L26.5533 26.5962C26.7654 26.8083 26.7654 27.0912 26.5533 27.3033C26.3412 27.5154 26.0583 27.5154 25.8462 27.3033L21.25 22.7071L16.6538 27.3033C16.4417 27.5154 16.1588 27.5154 15.9467 27.3033C15.7346 27.0912 15.7346 26.8083 15.9467 26.5962L20.5429 22L15.9467 17.4038C15.7346 17.1917 15.7346 16.9088 15.9467 16.6967C16.1588 16.4846 16.4417 16.4846 16.6538 16.6967L21.25 21.2929L25.8462 16.6967C26.0583 16.4846 26.3412 16.4846 26.5533 16.6967C26.7654 16.9088 26.7654 17.1917 26.5533 17.4038Z" fill="white"/>
</svg>
