<svg width="32" height="32" viewBox="0 0 32 32" fill="none" xmlns="http://www.w3.org/2000/svg">
<path d="M5.39341 5.3934C-0.475581 11.2624 -0.475581 20.7376 5.39341 26.6066C11.2624 32.4756 20.7376 32.4756 26.6066 26.6066C32.4756 20.7376 32.4756 11.2624 26.6066 5.3934C20.7376 -0.475588 11.2624 -0.475587 5.39341 5.3934ZM21.3033 11.4038L16.7071 16L21.3033 20.5962C21.5154 20.8083 21.5154 21.0912 21.3033 21.3033C21.0912 21.5154 20.8083 21.5154 20.5962 21.3033L16 16.7071L11.4038 21.3033C11.1917 21.5154 10.9088 21.5154 10.6967 21.3033C10.4846 21.0912 10.4846 20.8083 10.6967 20.5962L15.2929 16L10.6967 11.4038C10.4846 11.1917 10.4846 10.9088 10.6967 10.6967C10.9088 10.4846 11.1917 10.4846 11.4038 10.6967L16 15.2929L20.5962 10.6967C20.8083 10.4846 21.0912 10.4846 21.3033 10.6967C21.5154 10.9088 21.5154 11.1917 21.3033 11.4038Z" fill="#259609"/>
</svg>
