<svg width="30" height="30" viewBox="0 0 30 30" fill="none" xmlns="http://www.w3.org/2000/svg">
<g opacity="0.75">
<path d="M15 0C6.7 0 0 6.7 0 15C0 23.3 6.7 30 15 30C23.3 30 30 23.3 30 15C30 6.7 23.3 0 15 0ZM22 15.5L15.5 15.5L15.5 22C15.5 22.3 15.3 22.5 15 22.5C14.7 22.5 14.5 22.3 14.5 22L14.5 15.5H8C7.7 15.5 7.5 15.3 7.5 15C7.5 14.7 7.7 14.5 8 14.5H14.5V8C14.5 7.7 14.7 7.5 15 7.5C15.3 7.5 15.5 7.7 15.5 8V14.5L22 14.5C22.3 14.5 22.5 14.7 22.5 15C22.5 15.3 22.3 15.5 22 15.5Z" fill="#259609"/>
</g>
</svg>
